<svg xmlns="http://www.w3.org/2000/svg" version="1.1" xmlns:xlink="http://www.w3.org/1999/xlink" xmlns:svgjs="http://svgjs.com/svgjs" width="480" height="480"><svg version="1.1" id="SvgjsSvg1000" xmlns="http://www.w3.org/2000/svg" xmlns:xlink="http://www.w3.org/1999/xlink" x="0px" y="0px" viewBox="0 0 480 480" style="enable-background:new 0 0 480 480;" xml:space="preserve">
<g>
	<g>
		<path d="M75.61,356.62c-10.72-12.27-16.09-27.7-16.09-46.29V149.12c0-18.59,5.36-34.01,16.09-46.29
			c10.72-12.27,25.02-19,42.89-20.2c1.19,0,2.15,0.36,2.86,1.07c0.71,0.71,1.07,1.67,1.07,2.86v17.52c0,2.15-1.31,3.46-3.93,3.93
			c-9.77,1.2-17.28,5.48-22.52,12.87c-5.24,7.39-7.86,17.52-7.86,30.38v157.28c0,12.63,2.62,22.64,7.86,30.03
			c5.24,7.39,12.75,11.68,22.52,12.87c1.19,0,2.15,0.36,2.86,1.07s1.07,1.66,1.07,2.86v17.52c0,1.19-0.36,2.14-1.07,2.86
			s-1.67,1.07-2.86,1.07C100.63,375.62,86.33,368.89,75.61,356.62z"></path>
		<path d="M154.6,346.43V110.51c0-4.29,2.14-6.43,6.43-6.43h112.24c14.06,0,26.99,3.22,38.78,9.65
			c11.8,6.43,21.15,15.25,28.06,26.45c6.91,11.2,10.37,23.59,10.37,37.18v21.45c0,13.82-3.46,26.27-10.37,37.35
			c-6.92,11.08-16.26,19.84-28.06,26.27c-11.8,6.43-24.73,9.65-38.78,9.65h-35.03c-4.29,0-9.77-1.9-16.44-5.72
			c2.62,5.96,3.93,10.37,3.93,13.23v66.84c0,4.29-2.27,6.43-6.79,6.43h-57.91C156.75,352.87,154.6,350.72,154.6,346.43z
			 M235.39,212.39h24.66c6.19,0,10.9-1.31,14.12-3.93c3.22-2.62,4.83-6.19,4.83-10.72v-16.44c0-4.76-1.61-8.46-4.83-11.08
			c-3.22-2.62-7.92-3.93-14.12-3.93h-24.66c-4.29,0-8.7-1.79-13.23-5.36c2.38,4.29,3.57,7.86,3.57,10.72v35.39
			c0,1.91-0.54,3.99-1.61,6.26c-1.07,2.27-1.73,3.75-1.97,4.47C226.69,214.17,231.1,212.39,235.39,212.39z"></path>
		<path d="M359.42,375.74c-0.71-0.71-1.07-1.67-1.07-2.86v-17.52c0-0.96,0.41-1.85,1.25-2.68c0.83-0.83,1.73-1.25,2.68-1.25
			c9.77-1.19,17.28-5.42,22.52-12.69c5.24-7.27,7.86-17.34,7.86-30.21V151.26c0-12.87-2.62-22.99-7.86-30.38
			c-5.25-7.38-12.75-11.67-22.52-12.87c-2.62-0.47-3.93-1.79-3.93-3.93V86.56c0-1.19,0.36-2.14,1.07-2.86
			c0.71-0.72,1.67-1.07,2.86-1.07c17.87,1.2,32.17,7.86,42.9,20.02s16.08,27.65,16.08,46.47v161.21c0,18.59-5.36,34.02-16.08,46.29
			c-10.72,12.27-25.02,19-42.9,20.2C361.09,376.82,360.14,376.46,359.42,375.74z"></path>
	</g>
</g>
</svg><style>@media (prefers-color-scheme: light) { :root { filter: none; } }
</style></svg>