<?xml version="1.0" encoding="utf-8"?>
<!-- Generator: Adobe Illustrator 27.1.1, SVG Export Plug-In . SVG Version: 6.00 Build 0)  -->
<svg version="1.1" id="Capa_1" xmlns="http://www.w3.org/2000/svg" xmlns:xlink="http://www.w3.org/1999/xlink" x="0px" y="0px"
	 viewBox="0 0 1400 5593.5" style="enable-background:new 0 0 1400 5593.5;" xml:space="preserve">
<style type="text/css">
	.st0{fill:#FFFFFF;}
	.st1{fill:#00FF08;}
	.st2{fill:#DB0074;}
	.st3{fill:#E3E3E2;}
	.st4{fill:#CFA616;}
	.st5{fill:none;stroke:#000000;stroke-width:1.6075;}
	.st6{fill:none;stroke:#000000;stroke-width:1.6066;}
	.st7{fill:none;stroke:#000000;stroke-width:1.609;}
	.st8{fill:none;stroke:#000000;stroke-width:1.6067;}
	.st9{fill:#EAEAEA;}
</style>
<g id="Capa_2_00000108298460619331182970000000761974264101738908_">
	<rect y="1.08" width="1400" height="5593.5"/>
</g>
<g>
	<g>
		<g>
			<path class="st0" d="M85.99,726.87V112.31h99.75c0,0,39.63-3.2,39.63,49.94v514.51c0,53.15-39.63,50.1-39.63,50.1L85.99,726.87z
				 M146.83,682.19h4.39c7.2,0,13.32-5.97,13.32-13.17V171.49c0-7.2-6.11-12.98-13.32-12.98h-4.39V682.19z"/>
			<path class="st0" d="M243.79,726.88V112.44h60.96v614.45H243.79z"/>
			<path class="st0" d="M408.56,112.41h60.97v614.46h-51.22L367.1,356.2l15.74,207.83v162.86h-60.96V112.41l0.2,0.74l-0.2-0.83
				h51.22l51.17,370.5l-15.72-207.55L408.56,112.41z"/>
			<path class="st0" d="M589.52,108.47c22.43,0,38.4,14.95,38.4,50.05v522.15c0,35.11-15.97,50.05-38.4,50.05h-62.99
				c-22.43,0-38.39-14.94-38.39-50.05V158.52c0-35.1,15.96-50.05,38.39-50.05H589.52z M566.32,160.84c0-3.99-1.91-6.15-6.15-6.15
				h-4.24c-4.24,0-6.15,2.16-6.15,6.15v517.53c0,3.99,1.91,6.15,6.15,6.15h4.24c4.24,0,6.15-2.16,6.15-6.15V160.84z"/>
			<path class="st0" d="M822.27,108.47c22.43,0,36.3,14.95,31.36,50.05l-23.84,169.72h-61.61l23.52-167.41
				c0.56-3.99-1.04-6.15-5.28-6.15h-4.24c-4.24,0-6.46,2.16-7.02,6.15l-22.28,158.58c-7.54,53.62,67.52,75.88,58.28,141.7
				L780.3,680.65c-4.93,35.11-23,50.05-45.42,50.05h-62.99c-22.42,0-36.29-14.94-31.35-50.05l29.01-206.48h61.61l-28.69,204.17
				c-0.56,3.99,1.05,6.15,5.29,6.15H712c4.24,0,6.45-2.16,7.02-6.15l28.46-202.6c7.99-56.84-67.53-75.81-58.27-141.7l24.67-175.53
				c4.92-35.1,23-50.05,45.42-50.05H822.27z"/>
			<path class="st0" d="M913.32,112.41h55.86l-38.23,614.48h-62.47l13.61-134.34h-16.62l-24.14,134.34h-62.47L913.32,112.41z
				 M873.8,546.14h12.99l14.19-139.96l0.42-10.2l-2.53,10.6L873.8,546.14z"/>
			<path class="st0" d="M1165.81,112.32l-79.87,568.35c-4.93,35.11-23,50.05-45.42,50.05h-62.99c-22.42,0-36.29-14.94-31.35-50.05
				l79.87-568.35h61.61l-79.55,566.04c-0.56,3.99,1.04,6.15,5.28,6.15h4.25c4.24,0,6.45-2.16,7.02-6.15l79.54-566.04H1165.81z"/>
			<path class="st0" d="M1293.42,112.33c0,0,40.46-3.2,32.99,49.94l-29.13,207.24c-3.94,28.07-16.85,40.45-28.15,45.9
				c9.76,5.51,19.18,17.95,15.23,46.03l-37.3,265.42h-61.61l39.51-281.17c0.51-3.6-1.85-6.84-5.44-6.84h-11.03l-40.47,287.97h-60.96
				l86.35-614.45h60.97v-0.05L1293.42,112.33z M1247.9,158.51l-33,234.89h11.01c3.6,0,6.82-3.05,7.33-6.64l31.17-221.77
				c0.51-3.6-1.9-6.45-5.5-6.45L1247.9,158.51z"/>
		</g>
	</g>
	<g>
		<g>
			<path class="st1" d="M235.9,806.86c0,0,57.3-4.59,57.3,71.52v389.38c0,76.1-57.3,71.74-57.3,71.74h-13.15v347.28h-44.56V806.9
				h44.56v-0.06L235.9,806.86z M247.71,860.88c0-5.15-4.03-9.24-9.18-9.24h-15.77v445.25h15.77c5.15,0,9.18-4.38,9.18-9.52V860.88z"
				/>
			<path class="st1" d="M379.77,801.23c32.12,0,54.99,21.41,54.99,71.67v747.7c0,50.28-22.86,71.67-54.99,71.67h-5.46
				c-32.11,0-54.97-21.39-54.97-71.67V872.9c0-50.27,22.86-71.67,54.97-71.67H379.77z M389.28,854.85c0-5.7-2.73-8.81-8.81-8.81
				h-6.82c-6.08,0-8.81,3.11-8.81,8.81v783.81c0,5.72,2.73,8.81,8.81,8.81h6.82c6.08,0,8.81-3.09,8.81-8.81V854.85z"/>
			<path class="st1" d="M582.05,851.64H538.4v835.14h-44.58V851.64h-43.26v-44.8h131.51L582.05,851.64z"/>
			<path class="st1" d="M650.69,1686.78l-6.45-240.97h-20.8l-11.6,240.97H565.1l58.22-879.91h37.26l36.84,879.91H650.69z
				 M625.59,1400.71h17.42l-4.7-175.9l-1.53-42.84l-2.72,42.97L625.59,1400.71z"/>
			<path class="st1" d="M823.58,851.64h-43.65v835.14h-44.57V851.64h-43.26v-44.8H823.6L823.58,851.64z"/>
			<path class="st1" d="M899.2,801.23c32.12,0,54.99,21.41,54.99,71.67v747.7c0,50.28-22.86,71.67-54.99,71.67h-5.46
				c-32.11,0-54.97-21.39-54.97-71.67V872.9c0-50.27,22.86-71.67,54.97-71.67H899.2z M908.7,854.85c0-5.7-2.73-8.81-8.81-8.81h-6.82
				c-6.08,0-8.81,3.11-8.81,8.81v783.81c0,5.72,2.74,8.81,8.81,8.81h6.82c6.08,0,8.81-3.09,8.81-8.81V854.85z"/>
			<path class="st1" d="M1084.09,1268.39h-45.26v373.33h45.26v45.07h-89.84V806.92h88.78V852h-44.19v371.28h45.26V1268.39z"/>
			<path class="st1" d="M1221.69,1540.54v80.07c0,50.28-22.86,71.67-54.99,71.67h-5.46c-32.11,0-54.91-21.39-54.96-71.67
				l-0.43-295.59h45.49l0.43,313.65c0,5.72,2.72,8.81,8.81,8.81h6.82c6.08,0,8.81-3.09,8.81-8.81v-98.13l-0.64-223.01
				c0-81.39-69.95-108.54-69.95-202.89V872.95c0-50.27,22.86-71.67,54.97-71.67h5.46c32.12,0,54.99,21.41,54.99,71.67v242.58h-45.49
				V854.88c0-5.7-2.73-8.81-8.81-8.81h-6.82c-6.08,0-8.81,3.11-8.81,8.81v67.72l-0.84,192.25c0,76.78,70.79,108.87,70.79,203.09
				L1221.69,1540.54z"/>
		</g>
	</g>
	<g>
		<path class="st0" d="M247.62,1809.63h-35.44v236.56h35.44v36.41h-35.44v279.94h-41.77v-589.01h77.21V1809.63z"/>
		<path class="st0" d="M314.86,2362.54l-4.72-147.66H295.4l-6.55,147.66h-43.27l41.97-588.99h36.93l33.66,588.99H314.86z
			 M297.01,2178.71h11.97l-3.97-124.62l-1.09-17.55l-1.39,17.75L297.01,2178.71z"/>
		<path class="st0" d="M435.46,1773.54h41.83l-0.01,588.98H444.8l-43.54-350.91l9.54,169.91v181.02h-41.83v-588.99l0.09,0.41
			l-0.09-0.5h32.49l43.52,350.89l-9.54-169.78L435.46,1773.54z"/>
		<path class="st0" d="M598.73,2258.4v59.85c0,33.65-15.31,47.97-36.81,47.97h-27.45c-21.5,0-36.77-14.32-36.79-47.97l-0.16-197.89
			h42.45l0.16,203.98c0,3.82,1.83,5.9,5.9,5.9h4.36c4.06,0,5.9-2.08,5.9-5.9v-65.94l-0.25-140.31c0-54.48-58.61-72.66-58.61-135.81
			v-164.49c0-33.65,15.3-47.97,36.8-47.97h27.44c21.5,0,36.8,14.33,36.8,47.97v162.51h-42.45v-168.6c0-3.82-1.83-5.9-5.9-5.9h-4.36
			c-4.07,0-5.9,2.07-5.9,5.9v46.05l-0.33,118.73c0,51.4,58.94,72.81,58.94,135.89L598.73,2258.4z"/>
		<path class="st0" d="M709.63,1809.51h-29.22v553.02h-41.83v-553.02h-28.96v-35.99h100.02L709.63,1809.51z"/>
		<path class="st0" d="M766.63,2362.54l-4.72-147.66h-14.75l-6.55,147.66h-43.27l41.97-588.99h36.93l33.66,588.99H766.63z
			 M748.78,2178.71h11.97l-3.97-124.62l-1.09-17.55l-1.39,17.75L748.78,2178.71z"/>
		<path class="st0" d="M916.89,2258.4v59.85c0,33.65-15.31,47.97-36.81,47.97h-27.45c-21.5,0-36.77-14.32-36.79-47.97l-0.16-197.89
			h42.45l0.16,203.98c0,3.82,1.83,5.9,5.9,5.9h4.36c4.06,0,5.9-2.08,5.9-5.9v-65.94l-0.25-140.31c0-54.48-58.61-72.66-58.61-135.81
			v-164.49c0-33.65,15.3-47.97,36.8-47.97h27.44c21.5,0,36.8,14.33,36.8,47.97v162.51h-42.45v-168.6c0-3.82-1.83-5.9-5.9-5.9h-4.36
			c-4.07,0-5.9,2.07-5.9,5.9v46.05l-0.33,118.73c0,51.4,58.94,72.81,58.94,135.89L916.89,2258.4z"/>
		<path class="st0" d="M1027.79,1809.51h-29.22v553.02h-41.83v-553.02h-28.96v-35.99h100.02L1027.79,1809.51z"/>
		<path class="st0" d="M1044.41,2362.54v-588.96h41.83v588.96H1044.41z"/>
		<path class="st0" d="M1214.11,2120.29v197.95c0,33.65-15.3,47.97-36.8,47.97h-27.44c-21.5,0-36.8-14.32-36.8-47.97v-500.49
			c0-33.65,15.3-47.97,36.8-47.97h27.44c21.5,0,36.8,14.33,36.8,47.97v162.04h-42.45v-168.13c0-3.82-1.83-5.9-5.9-5.9h-4.35
			c-4.07,0-5.9,2.07-5.9,5.9v512.67c0,3.82,1.83,5.9,5.9,5.9h4.35c4.07,0,5.9-2.08,5.9-5.9v-204.04H1214.11z"/>
	</g>
	<g>
		<path class="st1" d="M211.45,2446.76c0,0,30.76-2.46,30.76,38.39v209.04c0,40.86-30.76,38.51-30.76,38.51h-7.06v186.44h-23.92
			v-472.36h23.92v-0.03L211.45,2446.76z M217.79,2475.77c0-2.76-2.16-4.96-4.93-4.96h-8.47v239.04h8.47c2.76,0,4.93-2.35,4.93-5.11
			V2475.77z"/>
		<path class="st1" d="M303.3,2694.54H279v200.42h24.3v24.2h-48.23V2446.8h47.66v24.2H279v199.32h24.3V2694.54z"/>
		<path class="st1" d="M380.74,2644.43c0,21.58-8.58,31.1-16.68,35.29c8.09,4.23,16.68,13.8,16.68,35.39v204.04h-24.42v-221.89
			c0-2.77-2.16-5.26-4.93-5.26h-8.47v227.11H319v-472.36h23.92v-0.04h7.06c0,0,30.76-2.46,30.76,38.39v159.32L380.74,2644.43z
			 M342.92,2470.75v197.78h8.47c2.76,0,4.93-2.34,4.93-5.11v-187.69c0-2.76-2.16-4.96-4.93-4.96L342.92,2470.75z"/>
		<path class="st1" d="M462.99,2470.81h-23.43v448.35h-23.93v-448.35H392.4v-24.05H463L462.99,2470.81z"/>
		<path class="st1" d="M533.12,2446.7v436.93c0,26.99-12.27,38.48-29.52,38.48h-2.93c-17.24,0-29.51-11.49-29.51-38.48V2446.7h24.42
			v446.62c0,3.07,1.47,4.73,4.73,4.73h3.66c3.26,0,4.73-1.66,4.73-4.73V2446.7H533.12z"/>
		<path class="st1" d="M616.36,2644.43c0,21.58-8.58,31.1-16.68,35.29c8.09,4.23,16.68,13.8,16.68,35.39v204.04h-24.42v-221.89
			c0-2.77-2.16-5.26-4.93-5.26h-8.47v227.11h-23.92v-472.36h23.92v-0.04h7.06c0,0,30.76-2.46,30.76,38.39v159.32L616.36,2644.43z
			 M578.54,2470.75v197.78h8.47c2.76,0,4.93-2.34,4.93-5.11v-187.69c0-2.76-2.16-4.96-4.93-4.96L578.54,2470.75z"/>
		<path class="st1" d="M697.88,2644.4c0,21.58-8.5,31.11-16.52,35.3c8.02,4.23,16.52,13.8,16.52,35.39v165.52
			c0,40.86-30.47,38.52-30.47,38.52h-7.06l-0.01-0.04h-23.92v-472.36h23.93v-0.04h7.06c0,0,30.47-2.46,30.47,38.39v159.31V2644.4z
			 M660.36,2470.73v197.78h8.47c2.76,0,5.22-2.34,5.22-5.12v-187.69c0-2.76-2.46-4.96-5.22-4.96L660.36,2470.73z M674.06,2697.21
			c0-2.76-2.46-5.25-5.22-5.25h-8.47v204.25h8.47c2.76,0,5.22-2.35,5.22-5.11V2697.21z"/>
		<path class="st1" d="M752.62,2919.15l-3.46-129.37h-11.17l-6.23,129.37h-25.09l31.25-472.38h20l19.78,472.38H752.62z
			 M739.14,2765.58h9.35l-2.52-94.43l-0.82-23l-1.46,23.07L739.14,2765.58z"/>
		<path class="st1" d="M851.02,2724.88v158.75c0,26.99-12.27,38.48-29.52,38.48h-2.93c-17.24,0-29.51-11.49-29.51-38.48v-401.4
			c0-26.99,12.27-38.48,29.51-38.48h2.93c17.25,0,29.52,11.49,29.52,38.48v129.82H826.6v-139.52c0-3.06-1.47-4.73-4.73-4.73h-3.66
			c-3.26,0-4.73,1.67-4.73,4.73v420.79c0,3.07,1.47,4.73,4.73,4.73h3.66c3.26,0,4.73-1.66,4.73-4.73v-168.44H851.02z"/>
		<path class="st1" d="M870.15,2919.15v-472.36h23.92v472.36H870.15z"/>
		<path class="st1" d="M947.59,2443.74c17.25,0,29.52,11.49,29.52,38.48v401.4c0,26.99-12.27,38.48-29.52,38.48h-2.93
			c-17.24,0-29.51-11.49-29.51-38.48v-401.4c0-26.98,12.27-38.48,29.51-38.48H947.59z M952.69,2472.53c0-3.06-1.47-4.73-4.73-4.73
			h-3.66c-3.26,0-4.73,1.67-4.73,4.73v420.79c0,3.07,1.47,4.73,4.73,4.73h3.66c3.26,0,4.73-1.66,4.73-4.73V2472.53z"/>
		<path class="st1" d="M1042.31,2446.76h23.93l-0.01,472.37h-16.43l-31.72-278.9l4.45,119.3v159.61h-23.92v-472.38l0.02,0.15
			l-0.02-0.22h16.44l31.7,278.96l-4.45-119.27L1042.31,2446.76z"/>
		<path class="st1" d="M1134.47,2694.54h-24.3v200.42h24.3v24.2h-48.23V2446.8h47.66v24.2h-23.72v199.32h24.3V2694.54z"/>
		<path class="st1" d="M1208.34,2840.64v42.99c0,26.99-12.27,38.48-29.52,38.48h-2.93c-17.24,0-29.48-11.49-29.51-38.48
			l-0.23-158.69h24.42l0.23,168.38c0,3.07,1.46,4.73,4.73,4.73h3.66c3.26,0,4.73-1.66,4.73-4.73v-52.68l-0.34-119.72
			c0-43.69-37.55-58.27-37.55-108.92v-129.75c0-26.99,12.27-38.48,29.51-38.48h2.93c17.25,0,29.52,11.49,29.52,38.48v130.23h-24.42
			v-139.93c0-3.06-1.47-4.73-4.73-4.73h-3.66c-3.26,0-4.73,1.67-4.73,4.73v36.36l-0.45,103.21c0,41.22,38,58.45,38,109.03
			L1208.34,2840.64z"/>
	</g>
	<g>
		<path class="st1" d="M195.73,3065.47h-10.56v87.08h10.56v10.51h-20.96v-205.23h20.71v10.52h-10.31v86.6h10.56V3065.47z"/>
		<path class="st1" d="M221.54,2957.82h10.4l0,205.24h-7.14l-13.78-121.18l1.93,51.84v69.35h-10.39v-205.24l0.01,0.06l-0.01-0.1
			h7.14l13.77,121.2l-1.93-51.82L221.54,2957.82z"/>
		<path class="st1" d="M276.75,3152.55h15.29v10.51h-25.69v-10.51v-194.72h10.4L276.75,3152.55z"/>
		<path class="st1" d="M316.62,3163.06l-1.5-56.21h-4.85l-2.71,56.21h-10.9l13.58-205.24h8.69l8.59,205.24H316.62z M310.76,3096.34
			h4.06l-1.1-41.03l-0.36-9.99l-0.64,10.02L310.76,3096.34z"/>
		<path class="st1" d="M378.36,2968.34h-10.31v86.6h10.31v10.52h-10.31v97.59h-10.39v-205.23h20.7V2968.34z"/>
		<path class="st1" d="M412.62,2957.79v189.84c0,11.73-5.33,16.72-12.83,16.72h-1.27c-7.49,0-12.82-4.99-12.82-16.72v-189.84h10.61
			v194.05c0,1.33,0.64,2.05,2.05,2.05h1.59c1.42,0,2.06-0.72,2.06-2.05v-194.05H412.62z"/>
		<path class="st1" d="M442.92,3065.47h-10.56v87.08h10.56v10.51h-20.96v-205.23h20.71v10.52h-10.31v86.6h10.56V3065.47z"/>
		<path class="st1" d="M476.57,3043.7c0,9.38-3.73,13.51-7.25,15.33c3.52,1.84,7.25,6,7.25,15.38v88.65h-10.61v-96.41
			c0-1.2-0.94-2.28-2.14-2.28h-3.68v98.67h-10.39v-205.23h10.39v-0.02h3.07c0,0,13.37-1.07,13.37,16.68L476.57,3043.7L476.57,3043.7
			z M460.13,2968.24v85.94h3.68c1.2,0,2.14-1.02,2.14-2.22v-81.55c0-1.2-0.94-2.16-2.14-2.16L460.13,2968.24z"/>
		<path class="st1" d="M480.89,3152.29l23.7-183.95h-18.11v-10.51l28.25-0.01v13.49l-23.13,181.04h21.42v10.71h-32.13V3152.29z"/>
		<path class="st1" d="M535.25,3163.06l-1.5-56.21h-4.85l-2.71,56.21h-10.9l13.58-205.24h8.69l8.59,205.24H535.25z M529.4,3096.34
			h4.06l-1.1-41.03l-0.36-9.99l-0.64,10.02L529.4,3096.34z"/>
		<path class="st1" d="M610.16,3164.86v9.93h-12.25c-2.03,0-4.53-1.93-4.52-5.11v-5.34h-3.75c-7.49,0-12.82-4.99-12.82-16.72v-174.4
			c0-11.72,5.33-16.72,12.82-16.72h1.27c7.49,0,12.83,4.99,12.83,16.72l0,190.15c0,1.29,0.24,1.49,1.53,1.49H610.16z
			 M587.42,3122.74c0.81-0.14,1.65-0.2,2.52-0.2h0.65c0.88,0,1.72,0.06,2.53,0.2v-153.72c0-1.33-0.64-2.05-2.06-2.05h-1.59
			c-1.42,0-2.06,0.72-2.06,2.05V3122.74z M593.13,3135.04c0-1.33-0.64-2.05-2.06-2.05h-1.59c-1.42,0-2.05,0.72-2.05,2.05v16.8
			c0,1.33,0.64,2.05,2.05,2.05h1.59c1.42,0,2.06-0.72,2.06-2.05V3135.04z"/>
		<path class="st1" d="M637.94,2957.79v189.84c0,11.73-5.33,16.72-12.83,16.72h-1.27c-7.49,0-12.82-4.99-12.82-16.72v-189.84h10.61
			v194.05c0,1.33,0.64,2.05,2.06,2.05h1.59c1.42,0,2.06-0.72,2.06-2.05v-194.05H637.94z"/>
		<path class="st1" d="M668.24,3065.47h-10.56v87.08h10.56v10.51h-20.96v-205.23h20.71v10.52h-10.31v86.6h10.56V3065.47z"/>
		<path class="st1" d="M719.77,2957.82h10.4l0,205.24h-7.14l-13.78-121.18l1.93,51.84v69.35h-10.39v-205.24l0.01,0.06l-0.01-0.1
			h7.14l13.77,121.2l-1.93-51.82L719.77,2957.82z"/>
		<path class="st1" d="M753.46,2956.5c7.49,0,12.83,4.99,12.83,16.72v174.4c0,11.73-5.33,16.72-12.83,16.72h-1.27
			c-7.49,0-12.82-4.99-12.82-16.72v-174.4c0-11.72,5.33-16.72,12.82-16.72H753.46z M755.68,2969.01c0-1.33-0.64-2.06-2.06-2.06
			h-1.59c-1.42,0-2.05,0.73-2.05,2.06v182.83c0,1.33,0.64,2.05,2.05,2.05h1.59c1.42,0,2.06-0.72,2.06-2.05V2969.01z"/>
		<path class="st1" d="M828.94,2968.26h-10.18v194.8h-10.4v-194.8h-10.09v-10.45h30.67L828.94,2968.26z"/>
		<path class="st1" d="M855.5,3065.47h-10.56v87.08h10.56v10.51h-20.96v-205.23h20.71v10.52h-10.31v86.6h10.56V3065.47z"/>
		<path class="st1" d="M888.04,3163.06v-205.23h10.39v205.23H888.04z"/>
		<path class="st1" d="M946.33,3163.06h-10.4v-28.53l1.05-68.12l-5.2,96.64h-10.16l-5.19-96.64l1.04,68.12v28.53h-10.39v-205.24
			l7.68-0.01v0l1.11,0l10.83,157.88l10.83-157.88l8.79,0.01L946.33,3163.06z"/>
		<path class="st1" d="M970.73,3163.06l-1.5-56.21h-4.85l-2.71,56.21h-10.9l13.58-205.24h8.69l8.59,205.24H970.73z M964.87,3096.34
			h4.06l-1.1-41.03l-0.36-9.99l-0.64,10.02L964.87,3096.34z"/>
		<path class="st1" d="M1013.48,3025.68h-10.61v-56.68c0-1.33-0.64-2.05-2.06-2.05h-1.59c-1.42,0-2.06,0.72-2.06,2.05v182.83
			c0,1.34,0.64,2.06,2.06,2.06h1.59c1.42,0,2.06-0.72,2.06-2.06v-62.39h-2.61v-10.7h13.22v68.88c0,11.73-5.33,16.72-12.83,16.72
			h-1.27c-7.49,0-12.82-4.99-12.82-16.72v-174.4c0-11.72,5.33-16.72,12.82-16.72h1.27c7.49,0,12.83,4.99,12.83,16.72V3025.68z"/>
		<path class="st1" d="M1021.8,3163.06v-205.23h10.39v205.23H1021.8z"/>
		<path class="st1" d="M1059.81,2957.82h10.4l0,205.24h-7.14l-13.78-121.18l1.93,51.84v69.35h-10.39v-205.24l0.01,0.06l-0.01-0.1
			h7.14l13.77,121.2l-1.93-51.82L1059.81,2957.82z"/>
		<path class="st1" d="M1094.45,3163.06l-1.5-56.21h-4.85l-2.71,56.21h-10.9l13.58-205.24h8.69l8.59,205.24H1094.45z
			 M1088.59,3096.34h4.06l-1.1-41.03l-0.36-9.99l-0.64,10.02L1088.59,3096.34z"/>
		<path class="st1" d="M1137.03,3043.69c0,9.38-3.69,13.52-7.18,15.34c3.48,1.84,7.18,6,7.18,15.38v71.92
			c0,17.75-13.24,16.73-13.24,16.73h-3.07l0-0.02h-10.4V2957.8h10.4v-0.02h3.07c0,0,13.24-1.07,13.24,16.68V3043.69L1137.03,3043.69
			z M1120.73,2968.23v85.93h3.68c1.2,0,2.27-1.02,2.27-2.22v-81.55c0-1.2-1.07-2.16-2.27-2.16L1120.73,2968.23z M1126.68,3066.63
			c0-1.2-1.07-2.28-2.27-2.28h-3.68v88.75h3.68c1.2,0,2.27-1.02,2.27-2.22V3066.63z"/>
		<path class="st1" d="M1160.81,3163.06l-1.5-56.21h-4.85l-2.71,56.21h-10.9l13.58-205.24h8.69l8.59,205.24H1160.81z
			 M1154.96,3096.34h4.06l-1.1-41.03l-0.36-9.99l-0.64,10.02L1154.96,3096.34z"/>
		<path class="st1" d="M1201.4,3128.95v18.68c0,11.73-5.33,16.72-12.83,16.72h-1.27c-7.49,0-12.81-4.99-12.82-16.72l-0.1-68.95
			h10.61l0.1,73.16c0,1.33,0.63,2.05,2.05,2.05h1.59c1.42,0,2.06-0.72,2.06-2.05v-22.89l-0.15-52.02
			c0-18.98-16.32-25.32-16.32-47.33v-56.38c0-11.72,5.33-16.72,12.82-16.72h1.27c7.49,0,12.83,4.99,12.83,16.72v56.58h-10.61v-60.8
			c0-1.33-0.64-2.06-2.06-2.06h-1.59c-1.42,0-2.05,0.73-2.05,2.06v15.79l-0.2,44.84c0,17.91,16.51,25.39,16.51,47.37L1201.4,3128.95
			z"/>
	</g>
	<path class="st0" d="M356.18,3242.78h51.95l-196.38,953.95h-47.04l48.21-596.91l0.6-8.97l-1.9,8.89L92.05,4196.72H44.98
		l71.76-953.95h51.95l-58.92,660.35l126.7-660.35h51.95l-58.92,660.35L356.18,3242.78z"/>
	<path class="st0" d="M531.16,3236.82c34.81,0,56.34,23.2,48.68,77.69l-113.9,810.48c-7.66,54.5-35.71,77.69-70.52,77.69h-5.93
		c-34.81,0-56.34-23.19-48.68-77.69l113.88-810.48c7.66-54.49,35.71-77.69,70.52-77.69H531.16z M533.31,3294.94
		c0.85-6.18-1.64-9.55-8.21-9.55h-7.4c-6.57,0-10.03,3.37-10.89,9.55l-119.4,849.63c-0.87,6.2,1.61,9.55,8.19,9.55h7.4
		c6.59,0,10.02-3.35,10.89-9.55L533.31,3294.94z"/>
	<path class="st0" d="M758.07,3242.92h48.32l-134.04,953.79v-0.02h-33.2l15.12-563.13l-24.86,240.88l-45.29,322.27h-48.31
		l134.04-953.79v0.3l0.01-0.44h33.2l-15.13,563.24l24.86-240.81L758.07,3242.92z"/>
	<path class="st0" d="M754.71,4196.7l134.05-953.92h62.2c0,0,62.21-4.97,50.61,77.52l-112.22,798.62
		c-11.6,82.49-72.43,77.77-72.43,77.77L754.71,4196.7z M809.32,4150.51h6.83c11.18,0,21.97-9.28,23.53-20.44l115.04-818.58
		c1.55-11.16-6.66-20.14-17.84-20.14h-6.83L809.32,4150.51z"/>
	<path class="st0" d="M1167.88,3291.87h-47.9l-56.55,402.45h47.91l-6.87,48.86h-47.91l-56.86,404.68h47.9l-6.85,48.86H944.5
		l70.6-502.41l56.57-402.45l6.85-48.87h96.24L1167.88,3291.87z"/>
	<path class="st0" d="M1302.38,3242.82c0,0,62.79-4.96,51.21,77.52l-45.21,321.68c-6.12,43.57-26.16,62.79-43.69,71.25
		c15.15,8.55,29.77,27.86,23.65,71.45l-57.89,411.98h-49.31l62.95-448.02c0.79-5.58-2.86-10.62-8.44-10.62h-17.09l-64.46,458.55
		h-48.31l134.03-953.74h48.32v-0.07L1302.38,3242.82z M1306.93,3301.37c0.79-5.57-2.94-10.02-8.52-10.02h-17.12l-56.1,399.34h17.09
		c5.58,0,10.6-4.73,11.39-10.32L1306.93,3301.37z"/>
	<g>
		<g>
			<path class="st1" d="M201.69,342.82H190.9v71.99h10.79v11.08H190.9v85.2h-12.71V331.84h23.5V342.82z"/>
			<path class="st1" d="M531.31,330.69c6.54,0,11.2,4.36,11.2,14.6v152.32c0,10.24-4.66,14.6-11.2,14.6h-8.35
				c-6.54,0-11.2-4.36-11.2-14.6V345.29c0-10.24,4.66-14.6,11.2-14.6H531.31z M529.59,343.44c0-1.16-0.56-1.8-1.8-1.8h-1.33
				c-1.24,0-1.79,0.63-1.79,1.8v156.02c0,1.16,0.56,1.8,1.79,1.8h1.33c1.24,0,1.8-0.63,1.8-1.8V343.44z"/>
			<path class="st1" d="M873.55,331.84h12.73l0,179.25h-9.89l-13.25-106.79l2.9,51.71v55.09h-12.73V331.84l0.03,0.12l-0.03-0.15
				h9.89l13.25,106.79l-2.9-51.67L873.55,331.84z"/>
			<path class="st1" d="M1221.68,342.79h-8.89v168.3h-12.73v-168.3h-8.81v-10.95h30.44L1221.68,342.79z"/>
		</g>
	</g>
	<g>
		<path class="st1" d="M330.7,4272.11c18.81,0,31.77,12.1,31.77,41.71v559.83H321.5v-553.06c0-6.77-3.98-10.08-8.95-10.08
			c-8.1,0-13.91,8.1-13.91,8.1v355.75h-0.04v199.29h-40.97v-553.06c0-6.77-3.98-10.08-8.95-10.08c-8.1,0-13.91,8.1-13.91,8.1v555.05
			h-41.02v-199.29V4447.1v-170.02h41.02v10.73c8.96-9.84,19.57-15.7,32.52-15.7c13.17,0,23.49,5.94,28.47,19.64
			c9.62-12.19,21.34-19.64,35.4-19.64H330.7z"/>
		<path class="st1" d="M440.07,4277.08v596.59h-41.02v-596.59H440.07z M402.15,4220.38v-105.5h29.76v105.5H402.15z"/>
		<path class="st1" d="M579.69,4666.55v147.48c0,45.33-20.61,64.62-49.58,64.62h-4.92c-28.95,0-49.57-19.29-49.57-64.62v-477.21
			c0-45.32,20.61-64.62,49.57-64.62h4.92c28.96,0,49.58,19.3,49.58,64.62v139.73h-41.02v-156.02c0-5.16-2.47-7.94-7.94-7.94h-6.14
			c-5.48,0-7.94,2.78-7.94,7.94v509.76c0,5.16,2.47,7.94,7.94,7.94h6.14c5.48,0,7.94-2.78,7.94-7.94v-163.76L579.69,4666.55z"/>
		<path class="st1" d="M684.48,4272.08c17.72,0,31.25,14.17,31.25,38.51v206.7h-40.02v-196.71c0-6.77-3.98-10.08-8.95-10.08
			c-8.1,0-13.91,8.1-13.91,8.1v555.05h-41.02v-355.84v-115.3v-125.44h16.76l6.61,26.85c12.05-19.5,28.6-31.81,49.24-31.81
			L684.48,4272.08z"/>
		<path class="st1" d="M794.57,4272.18c28.96,0,49.58,19.3,49.58,64.62V4814c0,45.33-20.61,64.62-49.58,64.62h-4.92
			c-28.95,0-49.57-19.29-49.57-64.62V4336.8c0-45.32,20.61-64.62,49.57-64.62H794.57z M803.14,4320.53c0-5.16-2.47-7.94-7.94-7.94
			h-6.15c-5.48,0-7.94,2.78-7.94,7.94v509.76c0,5.16,2.47,7.94,7.94,7.94h6.15c5.48,0,7.94-2.78,7.94-7.94V4320.53z"/>
		<path class="st1" d="M952.5,4272.1c18.81,0,31.79,12.1,31.79,41.71v526.31c0,24.32-14.5,38.49-32.22,38.49
			c-20.43,0-36.71-12.07-48.56-31.24l-6.47,26.28h-16.76v-125.43c0-81.77,0-192.6,0-301.12v-366.9h41.02v206.84
			c8.74-9.37,19.09-14.92,31.23-14.92L952.5,4272.1z M943.33,4320.58c0-6.77-3.98-10.08-8.95-10.08c-8.1,0-13.1,8.1-13.1,8.1v513.52
			c0,0,4.99,8.09,13.1,8.09c4.97,0,8.95-3.3,8.95-10.07V4320.58z"/>
		<path class="st1" d="M1061.49,4277.08v596.59h-41.02v-596.59H1061.49z M1023.58,4220.38v-105.5h29.76v105.5H1023.58z"/>
		<path class="st1" d="M1151.52,4272.18c28.96,0,49.58,19.3,49.58,64.62V4814c0,45.33-20.61,64.62-49.58,64.62h-4.92
			c-28.95,0-49.57-19.29-49.57-64.62V4336.8c0-45.32,20.61-64.62,49.57-64.62H1151.52z M1160.09,4320.53c0-5.16-2.47-7.94-7.94-7.94
			H1146c-5.48,0-7.94,2.78-7.94,7.94v509.76c0,5.16,2.47,7.94,7.94,7.94h6.15c5.48,0,7.94-2.78,7.94-7.94V4320.53z"/>
	</g>
	<g>
		<path class="st0" d="M257.52,4939.49c21.36,0,34.58,14.24,29.88,47.68l-8.09,57.67l-22.05,156.86l-0.53,3.73l-7.52,53.61
			l-4.46,31.7l-0.01,0.12c-6.54,46.56-11.53,82.12-12.98,92.42h-12.38l-2.09-19.88c-10.96,14.43-24.49,23.54-39.74,23.54
			c-13.07,0-21.61-10.46-19.1-28.4l13.98-99.52l7.67-54.65l2.32-16.49c4.49-31.93,25.45-42.54,51.69-42.54h0.81l13.99-99.6
			l9.93-70.6c0.54-3.81-0.99-5.86-5.03-5.86h-4.54c-4.04,0-6.15,2.05-6.68,5.86l-20.34,144.69h-30.26l18.65-132.68
			c4.69-33.44,21.9-47.68,43.27-47.68L257.52,4939.49z M211.66,5310.68l19.24-136.9l-7.89,0.4c-4.7,0.24-9.08,4.58-10.08,11.7
			l-0.74,5.36l-9.53,67.82l-12.94,92.14c-0.7,5,1.89,7.43,5.55,7.43c5.97,0,10.5-5.97,10.5-5.97L211.66,5310.68z"/>
		<path class="st0" d="M370.53,4797.81l-82.27,585.47h-30.26l82.27-585.47H370.53z"/>
		<path class="st0" d="M432.4,4939.4c13.88,0,22.19,8.93,19.13,30.78l-54.58,388.34c-2.52,17.95-14.68,28.4-27.75,28.4
			c-15.08,0-25.84-8.9-32.6-23.06l-7.5,19.39h-12.38l12.95-92.14c0.02-0.14,0.03-0.26,0.04-0.4l31.22-222.19l0.02-0.19
			c16.88-120.14,33.21-236.4,38-270.52h30.26l-21.45,152.62c7.42-6.91,15.63-11.01,24.59-11.01L432.4,4939.4z M420.6,4975.17
			c0.69-5-1.9-7.44-5.57-7.44c-5.93,0-10.45,5.91-10.5,5.98l-53.25,378.91c0,0,2.85,5.97,8.83,5.97c3.67,0,6.95-2.44,7.65-7.43
			L420.6,4975.17z"/>
		<path class="st0" d="M519.42,4939.49c21.36,0,34.58,14.24,29.88,47.68l-8.09,57.67l-22.05,156.86l-0.53,3.73l-7.52,53.61
			l-4.46,31.7l-0.01,0.12c-6.54,46.56-11.53,82.12-12.98,92.42h-12.38l-2.09-19.88c-10.96,14.43-24.49,23.54-39.74,23.54
			c-13.07,0-21.61-10.46-19.1-28.4l13.98-99.52l7.67-54.65l2.32-16.49c4.49-31.93,25.45-42.54,51.69-42.54h0.81l13.99-99.6
			l9.93-70.6c0.54-3.81-0.99-5.86-5.03-5.86h-4.54c-4.04,0-6.15,2.05-6.68,5.86l-20.34,144.69H453.9l18.65-132.68
			c4.69-33.44,21.9-47.68,43.27-47.68L519.42,4939.49z M473.57,5310.68l19.24-136.9l-7.89,0.4c-4.7,0.24-9.08,4.58-10.08,11.7
			l-0.74,5.36l-9.53,67.82l-12.94,92.14c-0.7,5,1.89,7.43,5.55,7.43c5.97,0,10.5-5.97,10.5-5.97L473.57,5310.68z"/>
		<path class="st0" d="M635.87,4939.38c13.08,0,21.59,10.45,19.08,28.42l-21.44,152.52h-29.53l20.4-145.14
			c0.7-5-1.89-7.44-5.55-7.44c-5.97,0-11.11,5.98-11.11,5.98l-5.9,42l-16.75,119.2l-34.89,248.35h-30.26l36.9-262.56l11.95-85.08
			v-0.01c6.93-49.27,11.98-85.28,13-92.54h12.38l2.08,19.81c10.92-14.39,24.42-23.47,39.64-23.47L635.87,4939.38z"/>
		<path class="st0" d="M716.21,4943.08l-61.86,440.2h-30.26l61.86-440.2H716.21z M694.12,4901.25l10.94-77.84h21.96l-10.94,77.84
			H694.12z"/>
		<path class="st0" d="M779.43,5230.45l-15.28,108.82c-4.7,33.45-21.91,47.68-43.28,47.68h-3.64c-21.36,0-34.58-14.23-29.88-47.68
			l49.48-352.11c4.7-33.44,21.91-47.68,43.28-47.68h3.63c21.36,0,34.58,14.24,29.88,47.68l-14.49,103.1h-30.26l16.18-115.12
			c0.54-3.81-0.99-5.86-5.03-5.86h-4.54c-4.04,0-6.15,2.05-6.68,5.86l-52.85,376.13c-0.54,3.81,0.99,5.86,5.03,5.86h4.54
			c4.04,0,6.15-2.05,6.68-5.86l16.98-120.83L779.43,5230.45z"/>
		<path class="st0" d="M887.88,4939.46c21.36,0,34.57,14.24,29.88,47.68l-49.48,352.11c-4.7,33.45-21.92,47.68-43.28,47.68h-3.65
			c-21.36,0-34.57-14.23-29.88-47.68l49.49-352.11c4.7-33.44,21.91-47.68,43.27-47.68H887.88z M889.18,4975.14
			c0.54-3.81-0.99-5.86-5.04-5.86h-4.53c-4.04,0-6.15,2.05-6.68,5.86l-52.86,376.13c-0.53,3.81,1,5.86,5.04,5.86h4.54
			c4.04,0,6.16-2.05,6.68-5.86L889.18,4975.14z"/>
		<path class="st0" d="M1011.42,5035.65l-26.43,188.13l-42.84,304.77h-30.26l21.45-152.61c-7.43,6.91-15.63,11.01-24.59,11.01
			c-13.88,0-22.19-8.92-19.13-30.77l54.57-388.34c2.52-17.96,14.68-28.42,27.76-28.42c15.08,0,25.83,8.91,32.6,23.07l7.49-19.4
			h12.38l-12.98,92.36L1011.42,5035.65z M920.54,5351.19c-0.7,5,1.89,7.43,5.55,7.43c5.97,0,10.5-5.97,10.5-5.97l53.25-378.91
			c0,0-2.84-5.98-8.82-5.98c-3.67,0-6.94,2.44-7.65,7.44L920.54,5351.19z"/>
		<path class="st0" d="M1094.01,4943.07h30.26l-61.87,440.2h-30.26l1.11-7.91c-7.64,7.26-16.07,11.58-25.27,11.58
			c-13.88,0-22.19-8.92-19.13-30.77l58.05-413.09h30.24l-57.35,408.09c-0.7,5,1.89,7.43,5.56,7.43c5.98,0,11.1-5.97,11.1-5.97
			l36.89-262.49L1094.01,4943.07z"/>
		<path class="st0" d="M1192.34,4939.47c21.36,0,34.57,14.24,29.88,47.68l-27.93,198.71h-18.05l-0.01,0.06h-28.48l-23.24,165.35
			c-0.53,3.81,1,5.86,5.04,5.86h4.54c4.04,0,6.16-2.05,6.68-5.86l12.47-88.72h30.26l-10.77,76.71
			c-4.7,33.45-21.92,47.68-43.28,47.68h-3.65c-21.36,0-34.57-14.23-29.88-47.68l49.49-352.11c4.7-33.44,21.91-47.68,43.27-47.68
			L1192.34,4939.47z M1193.62,4975.15c0.54-3.81-0.99-5.86-5.04-5.86h-4.53c-4.04,0-6.15,2.05-6.68,5.86l-25.33,180.24h16.28
			L1193.62,4975.15z"/>
	</g>
</g>
</svg>
