<svg width="96" height="19" viewBox="0 0 96 19" fill="none" xmlns="http://www.w3.org/2000/svg">
<path d="M2.00846 2.88889C2.00846 3.28367 1.93587 4.20922 2.21587 4.536C3.24946 5.75622 6.8791 4.52089 9.26775 5.72222C8.52108 5.75622 5.82823 5.88656 5.39613 6.10378C4.08946 6.644 5.21983 8.24389 5.39613 8.93333V10.0667L11.6875 10.2556C11.6633 10.6107 11.7083 11.0187 11.3349 11.3303C10.8268 11.7534 10.011 11.7194 9.12602 11.9933C7.65342 12.4486 7.14873 13.1304 7.3112 14.0333L8.23762 17.133C8.85985 17.575 11.691 17.9906 12.7246 18H27.9345C28.3078 16.7836 29.3725 16.8289 31.3913 16.8742L35.5394 17.0556H42.1074L60.7741 16.8667C65.1228 16.861 62.9934 16.3057 67.342 16.3H81.8606L87.0458 16.1111C87.5747 14.43 89.8147 15.2366 91.3322 14.4394C92.0962 14.039 91.989 12.8717 91.8853 12.3333L94.6508 12.1444C94.6508 11.5967 94.7406 10.5483 94.395 10.0704C93.4374 8.74067 89.3377 8.344 87.0458 8.17778C89.5174 6.89144 93.4063 7.61678 92.8705 5.54089C92.7391 5.03278 92.4833 4.93833 91.8853 4.58889C95.2315 3.97878 94.9964 4.07511 94.9964 2.13333L87.0458 1.82733C84.2804 1.53644 84.792 1.00567 79.0952 1L63.1939 1.18889L59.0457 1.34378L52.8235 1H42.1074C38.2703 1.00378 39.3972 1.26444 36.9222 1.50433L31.3913 1.78767L27.9345 2.10122L17.5641 2.32222L8.92207 2.88889H2.00846Z" fill="#B0EC8C"/>
</svg>
