<svg width="20" height="16" viewBox="0 0 20 16" fill="none" xmlns="http://www.w3.org/2000/svg">
<path d="M19.7203 1.89C19.0103 2.2 18.2103 2.4 17.4103 2.53C18.2303 2.03 18.8603 1.24 19.1603 0.3C18.3903 0.76 17.5403 1.1 16.6303 1.3C15.9303 0.5 14.9103 0 13.7103 0C11.5103 0 9.72029 1.81 9.72029 4.04C9.72029 4.34 9.72029 4.64 9.82029 4.96C6.55029 4.8 3.61029 3.2 1.61029 0.7C1.31029 1.3 1.11029 2 1.11029 2.77C1.11029 4.17 1.81029 5.37 2.91029 6.13C2.26029 6.11 1.64029 5.93 1.10029 5.62C1.10029 5.62 1.10029 5.62 1.10029 5.72C1.10029 7.72 2.50029 9.32 4.30029 9.68C3.96029 9.77 3.61029 9.82 3.25029 9.82C2.99029 9.82 2.74029 9.79 2.50029 9.75C3.01029 11.35 4.50029 12.55 6.20029 12.55C4.84029 13.63 3.12029 14.28 1.25029 14.28C0.930293 14.28 0.610293 14.26 0.300293 14.22C2.06029 15.3 4.11029 16 6.41029 16C13.7403 16 17.7503 9.85 17.7503 4.51C17.7503 4.33 17.7503 4.16 17.7403 3.99C18.5103 3.4 19.2103 2.7 19.7103 1.89H19.7203Z" fill="white"/>
</svg>
